<svg width="529" height="65" viewBox="0 0 529 65" fill="none" xmlns="http://www.w3.org/2000/svg">
<path d="M413.119 16.6682C413.119 6.66821 407.785 2.83488 405.119 2.16821H456.619C452.219 6.96821 450.452 13.1682 450.119 15.6682C448.519 15.6682 445.452 13.3349 444.119 12.1682C439.319 5.76821 430.785 5.83488 427.119 6.66821C427.26 14.1759 427.45 27.848 427.258 31.0456C428.192 29.3147 433.005 25.5556 435.619 23.6682C442.019 22.8682 446.952 24.0015 448.619 24.6682C445.019 26.6682 442.452 31.1682 441.619 33.1682C430.819 32.3682 426.785 35.5015 426.119 37.1682V59.6682C431.119 59.5015 441.919 59.2682 445.119 59.6682C448.319 60.0682 454.119 51.8349 456.619 47.6682C456.219 55.6682 453.452 61.3349 452.119 63.1682H405.119C410.319 62.3682 412.619 58.1682 413.119 56.1682V16.6682Z" fill="black"/>
<path d="M393.619 63.1682C390.819 61.9682 390.119 55.6682 390.119 52.6682C371.719 58.6682 366.119 58.5015 365.619 57.6682L393.619 2.16821H351.119C355.119 7.36821 354.785 13.0015 354.119 15.1682L377.619 6.66821L376.619 11.6682L350.119 59.1682V63.1682H393.619Z" fill="black"/>
<path fill-rule="evenodd" clip-rule="evenodd" d="M278.119 25.6682C278.785 18.0015 284.819 2.4682 303.619 1.6682C322.419 0.868201 332.119 13.3349 334.619 19.6682C336.619 27.3349 338.519 44.9682 330.119 54.1682C321.719 63.3682 311.619 64.6682 307.619 64.1682C300.952 64.3349 286.219 61.5683 280.619 49.1682C279.285 45.3349 276.919 35.2682 278.119 25.6682ZM302.619 7.66824C298.785 8.50157 291.019 12.4682 290.619 21.6682C290.219 30.8682 291.452 38.8349 292.119 41.6682C293.285 46.5016 298.019 56.5682 307.619 58.1682C317.219 59.7682 321.619 52.8349 322.619 49.1682C323.619 46.8349 324.819 38.5682 321.619 24.1682C318.419 9.76824 307.619 7.16824 302.619 7.66824Z" fill="black"/>
<path fill-rule="evenodd" clip-rule="evenodd" d="M143.619 63.1682H166.619C163.019 61.5682 161.452 59.8349 161.119 59.1682V46.6682C160.719 42.6682 167.619 39.0015 171.119 37.6682C173.952 38.5015 179.619 41.0682 179.619 44.6682V54.6682C179.619 63.6682 190.619 65.1682 195.619 64.1682C199.619 63.3682 200.619 60.5015 200.619 59.1682C194.619 62.1682 192.785 59.8349 192.119 57.6682V41.6682C192.119 34.0682 183.785 32.5015 179.619 32.6682C179.715 32.6201 179.833 32.5626 179.971 32.4957C182.697 31.1728 193.071 26.1386 192.119 15.6682C191.319 6.86821 180.119 3.33487 174.619 2.6682C174.476 2.6682 173.66 2.64779 172.377 2.61572C164.68 2.4233 140.19 1.81106 143.619 2.6682C146.819 3.4682 148.619 6.00153 149.119 7.1682V55.6682C149.119 60.4682 145.452 62.6682 143.619 63.1682ZM160.619 10.6682V37.1682C169.019 33.5682 175.119 28.6682 177.119 26.6682C179.119 23.0016 181.519 14.3682 175.119 9.16824C168.719 3.96824 162.785 8.00158 160.619 10.6682Z" fill="black"/>
<path d="M68.6188 2.66821C77.4188 3.06821 85.2854 1.50155 88.1188 0.668213V50.6682C96.9188 63.0682 105.785 50.8349 109.119 43.1682V8.16821C109.119 5.76821 105.785 3.50155 104.119 2.66821H130.119C126.519 4.26821 124.285 7.00155 123.619 8.16821V56.1682C123.619 62.1682 127.952 62.6682 130.119 62.1682C114.519 66.9682 110.619 56.5015 110.619 50.6682C104.619 59.4682 97.4521 63.0015 94.6188 63.6682C82.1188 65.6682 74.1188 57.1682 74.1188 50.6682V8.16821C74.1188 4.56821 70.4521 3.00155 68.6188 2.66821Z" fill="black"/>
<path d="M20.6188 58.6682V6.16821C10.1187 6.16821 1.11875 12.1682 1.61875 11.1682C2.11875 10.1682 1.11876 3.66821 0.118759 3.66821H53.6188C50.8188 10.0682 50.4521 12.0015 50.6188 12.1682C41.8188 7.76821 34.9521 6.33488 32.6188 6.16821C32.1188 23.0015 31.4188 57.0682 32.6188 58.6682C33.8188 60.2682 36.7854 62.0015 38.1188 62.6682H14.6188C16.2188 62.6682 19.2854 60.0015 20.6188 58.6682Z" fill="black"/>
<path d="M227.619 63.6682H209.119C213.519 63.6682 215.619 59.0015 216.119 56.6682C216.452 44.8349 217.119 19.3682 217.119 12.1682C217.119 4.96821 212.785 2.83488 210.619 2.66821L227.619 3.16821L256.119 40.1682V8.16821C256.119 4.96821 252.452 3.50155 250.619 3.16821H266.619C261.819 4.76821 260.952 7.16821 261.119 8.16821V47.6682C265.119 51.2682 265.785 52.8349 265.619 53.1682C261.619 55.1682 259.619 60.3349 259.119 62.6682L221.619 12.1682V56.6682C221.619 60.2682 225.619 62.8349 227.619 63.6682Z" fill="black"/>
<path d="M489.119 63.6682H470.619C475.019 63.6682 477.119 59.0015 477.619 56.6682C477.952 44.8349 478.619 19.3682 478.619 12.1682C478.619 4.96821 474.285 2.83488 472.119 2.66821L489.119 3.16821L517.619 40.1682V8.16821C517.619 4.96821 513.952 3.50155 512.119 3.16821H528.119C523.319 4.76821 522.452 7.16821 522.619 8.16821V47.6682C526.619 51.2682 527.285 52.8349 527.119 53.1682C523.119 55.1682 521.119 60.3349 520.619 62.6682L483.119 12.1682V56.6682C483.119 60.2682 487.119 62.8349 489.119 63.6682Z" fill="black"/>
<path d="M427.258 31.0456C428.192 29.3147 433.005 25.5556 435.619 23.6682C442.019 22.8682 446.952 24.0015 448.619 24.6682C445.019 26.6682 442.452 31.1682 441.619 33.1682C430.819 32.3682 426.785 35.5015 426.119 37.1682V59.6682C431.119 59.5015 441.919 59.2682 445.119 59.6682C448.319 60.0682 454.119 51.8349 456.619 47.6682C456.219 55.6682 453.452 61.3349 452.119 63.1682H405.119C410.319 62.3682 412.619 58.1682 413.119 56.1682V16.6682C413.119 6.66821 407.785 2.83488 405.119 2.16821H456.619C452.219 6.96821 450.452 13.1682 450.119 15.6682C448.519 15.6682 445.452 13.3349 444.119 12.1682C439.319 5.76821 430.785 5.83488 427.119 6.66821C427.26 14.1759 427.45 27.848 427.258 31.0456ZM427.258 31.0456C427.12 31.3018 427.067 31.5135 427.119 31.6682C427.179 31.8483 427.225 31.6102 427.258 31.0456ZM390.119 52.6682C390.119 55.6682 390.819 61.9682 393.619 63.1682H350.119V59.1682L376.619 11.6682L377.619 6.66821L354.119 15.1682C354.785 13.0015 355.119 7.36821 351.119 2.16821H393.619L365.619 57.6682C366.119 58.5015 371.719 58.6682 390.119 52.6682ZM278.119 25.6682C278.785 18.0015 284.819 2.4682 303.619 1.6682C322.419 0.868201 332.119 13.3349 334.619 19.6682C336.619 27.3349 338.519 44.9682 330.119 54.1682C321.719 63.3682 311.619 64.6682 307.619 64.1682C300.952 64.3349 286.219 61.5683 280.619 49.1682C279.285 45.3349 276.919 35.2682 278.119 25.6682ZM302.619 7.66824C298.785 8.50157 291.019 12.4682 290.619 21.6682C290.219 30.8682 291.452 38.8349 292.119 41.6682C293.285 46.5016 298.019 56.5682 307.619 58.1682C317.219 59.7682 321.619 52.8349 322.619 49.1682C323.619 46.8349 324.819 38.5682 321.619 24.1682C318.419 9.76824 307.619 7.16824 302.619 7.66824ZM160.619 10.6682C162.785 8.00158 168.719 3.96824 175.119 9.16824C181.519 14.3682 179.119 23.0016 177.119 26.6682C175.119 28.6682 169.019 33.5682 160.619 37.1682V10.6682ZM143.619 63.1682H166.619C163.019 61.5682 161.452 59.8349 161.119 59.1682V46.6682C160.719 42.6682 167.619 39.0015 171.119 37.6682C173.952 38.5015 179.619 41.0682 179.619 44.6682V54.6682C179.619 63.6682 190.619 65.1682 195.619 64.1682C199.619 63.3682 200.619 60.5015 200.619 59.1682C194.619 62.1682 192.785 59.8349 192.119 57.6682V41.6682C192.119 34.0682 183.785 32.5015 179.619 32.6682C179.715 32.6201 179.833 32.5626 179.971 32.4957C182.697 31.1728 193.071 26.1386 192.119 15.6682C191.319 6.86821 180.119 3.33487 174.619 2.6682C174.476 2.6682 173.66 2.64779 172.377 2.61572C164.68 2.4233 140.19 1.81106 143.619 2.6682C146.819 3.4682 148.619 6.00153 149.119 7.1682V55.6682C149.119 60.4682 145.452 62.6682 143.619 63.1682ZM88.1188 0.668213C85.2854 1.50155 77.4188 3.06821 68.6188 2.66821C70.4521 3.00155 74.1188 4.56821 74.1188 8.16821V50.6682C74.1188 57.1682 82.1188 65.6682 94.6188 63.6682C97.4521 63.0015 104.619 59.4682 110.619 50.6682C110.619 56.5015 114.519 66.9682 130.119 62.1682C127.952 62.6682 123.619 62.1682 123.619 56.1682V8.16821C124.285 7.00155 126.519 4.26821 130.119 2.66821H104.119C105.785 3.50155 109.119 5.76821 109.119 8.16821V43.1682C105.785 50.8349 96.9188 63.0682 88.1188 50.6682V0.668213ZM20.6188 6.16821V58.6682C19.2854 60.0015 16.2188 62.6682 14.6188 62.6682H38.1188C36.7854 62.0015 33.8188 60.2682 32.6188 58.6682C31.4188 57.0682 32.1188 23.0015 32.6188 6.16821C34.9521 6.33488 41.8188 7.76821 50.6188 12.1682C50.4521 12.0015 50.8188 10.0682 53.6188 3.66821H0.118759C1.11876 3.66821 2.11875 10.1682 1.61875 11.1682C1.11875 12.1682 10.1187 6.16821 20.6188 6.16821ZM209.119 63.6682H227.619C225.619 62.8349 221.619 60.2682 221.619 56.6682V12.1682L259.119 62.6682C259.619 60.3349 261.619 55.1682 265.619 53.1682C265.785 52.8349 265.119 51.2682 261.119 47.6682V8.16821C260.952 7.16821 261.819 4.76821 266.619 3.16821H250.619C252.452 3.50155 256.119 4.96821 256.119 8.16821V40.1682L227.619 3.16821L210.619 2.66821C212.785 2.83488 217.119 4.96821 217.119 12.1682C217.119 19.3682 216.452 44.8349 216.119 56.6682C215.619 59.0015 213.519 63.6682 209.119 63.6682ZM470.619 63.6682H489.119C487.119 62.8349 483.119 60.2682 483.119 56.6682V12.1682L520.619 62.6682C521.119 60.3349 523.119 55.1682 527.119 53.1682C527.285 52.8349 526.619 51.2682 522.619 47.6682V8.16821C522.452 7.16821 523.319 4.76821 528.119 3.16821H512.119C513.952 3.50155 517.619 4.96821 517.619 8.16821V40.1682L489.119 3.16821L472.119 2.66821C474.285 2.83488 478.619 4.96821 478.619 12.1682C478.619 19.3682 477.952 44.8349 477.619 56.6682C477.119 59.0015 475.019 63.6682 470.619 63.6682Z" stroke="black"/>
</svg>
