<svg width="773" height="722" viewBox="0 0 773 722" fill="none" xmlns="http://www.w3.org/2000/svg">
<path d="M383.28 17.7475C233.28 -33.8525 152.78 39.2475 131.28 82.2475C105.613 134.414 40.6918 225.564 25.7801 249.248C8.78002 276.248 -25.7198 414.748 32.2801 461.248C73.3735 494.193 122.78 564.248 156.78 601.248C179.578 626.057 234.113 693.914 272.78 714.748C317.324 738.748 485.48 692.948 514.28 647.748C550.28 591.248 647.78 611.748 709.78 550.248C771.78 488.748 776.78 295.748 771.28 205.748C766.88 133.748 677.822 89.5798 632.78 82.2475C611.28 78.7476 533.28 69.3475 383.28 17.7475Z" fill="#439898"/>
</svg>
